<svg width="21" height="20" viewBox="0 0 21 20" fill="none" xmlns="http://www.w3.org/2000/svg">
<path d="M3.35837 18.775C3.32411 18.9217 3.32349 19.0742 3.35657 19.2212C3.38964 19.3681 3.45555 19.5057 3.54935 19.6235C3.64315 19.7414 3.76241 19.8365 3.89819 19.9017C4.03397 19.9669 4.18275 20.0005 4.33337 20C4.5309 20.0001 4.72402 19.9416 4.88837 19.832L10.3334 16.202L15.7784 19.832C15.9487 19.9451 16.1496 20.0033 16.354 19.9988C16.5584 19.9944 16.7565 19.9274 16.9218 19.8069C17.087 19.6865 17.2113 19.5183 17.2781 19.3251C17.3449 19.1318 17.3509 18.9228 17.2954 18.726L15.4664 12.326L20.0024 8.24401C20.1476 8.1132 20.2514 7.94268 20.3008 7.75353C20.3502 7.56437 20.343 7.3649 20.2803 7.17976C20.2175 6.99462 20.1018 6.83194 19.9476 6.71184C19.7933 6.59174 19.6073 6.51949 19.4124 6.50401L13.7114 6.05001L11.2444 0.589014C11.1658 0.413127 11.038 0.263736 10.8764 0.158872C10.7148 0.0540081 10.5263 -0.00184725 10.3337 -0.00195297C10.1411 -0.0020587 9.95251 0.0535897 9.7908 0.158276C9.62909 0.262963 9.50113 0.412213 9.42237 0.588015L6.95537 6.05001L1.25437 6.50301C1.06283 6.51819 0.879708 6.58822 0.726925 6.70475C0.574142 6.82127 0.458163 6.97934 0.392863 7.16004C0.327563 7.34075 0.315708 7.53645 0.358715 7.72372C0.401722 7.91099 0.497771 8.0819 0.63537 8.21601L4.84937 12.323L3.35837 18.775ZM10.3334 3.42901L12.3754 7.95001L12.9634 7.99701H12.9644L16.9364 8.31201L13.6654 11.256L13.6644 11.258L13.2014 11.674L13.3724 12.271V12.274L14.6254 16.659L10.3334 13.798V3.42901Z" fill="#515151"/>
</svg>
